# xmcd
#
# Track frame offsets: 
#        150
#        14919
#        30119
#        45020
#        62126
#        79534
#        91990
#        105871
#        123164
#        142501
#        157283
#        176467
#        191861
#        207475
#        224359
#        241943
#        258871
#        278459
#        297190
#        315201
#
# Disc length: 4406 seconds
#
# Revision: 1
# Processed by: cddbd v1.5.2PL0 Copyright (c) Steve Scherf et al.
# Submitted via: ExactAudioCopy v0.95b4
#
DISCID=00113414
DTITLE=BZN - 100 x BZN - CD 4
DYEAR=2013
DGENRE=Pop
TTITLE0=Felicidad
TTITLE1=Maar als jij weg wilt gaan
TTITLE2=Ja, dat was jij
TTITLE3=Just take my hand
TTITLE4=My sweet dream
TTITLE5=I'll sing you a song
TTITLE6=Yo the quero Margarita
TTITLE7=Guanabara bay
TTITLE8=Don't give up - don't give in
TTITLE9=A la campagna
TTITLE10=Niets is mooier
TTITLE11=Come on and dance
TTITLE12=The best days of my life
TTITLE13=Isles of Atlantis
TTITLE14=You're the one - you're the only
TTITLE15=In the year 1519
TTITLE16=Nights in Argentina
TTITLE17=Oh I miss you
TTITLE18=Vive la vie
TTITLE19=Santa Maria bay
EXTD=
EXTT0=
EXTT1=
EXTT2=
EXTT3=
EXTT4=
EXTT5=
EXTT6=
EXTT7=
EXTT8=
EXTT9=
EXTT10=
EXTT11=
EXTT12=
EXTT13=
EXTT14=
EXTT15=
EXTT16=
EXTT17=
EXTT18=
EXTT19=
PLAYORDER=
